<svg width="342" height="353" viewBox="0 0 342 353" fill="none" xmlns="http://www.w3.org/2000/svg">
<path d="M295.781 148.976C295.781 188.271 295.835 227.567 295.75 266.863C295.723 280.107 289.524 289.689 277.6 295.455C274.491 296.96 271.153 297.851 267.653 297.933C266.378 297.96 265.103 297.982 263.828 297.982C224.533 297.982 185.237 297.928 145.941 298.054C141.062 298.072 137.387 296.527 134.012 293.067C123.958 282.76 113.723 272.633 103.497 262.497C100.78 259.808 99.4828 256.776 99.4918 252.902C99.5594 213.233 99.5459 173.563 99.4873 133.889C99.4873 132.145 100.104 131.384 101.618 130.803C107.628 128.497 113.614 126.131 119.574 123.703C120.984 123.127 121.548 123.402 121.543 124.897C121.543 125.348 121.543 125.798 121.543 126.249C121.543 165.918 121.584 205.588 121.462 245.262C121.453 248.244 122.291 250.244 124.39 252.276C131.981 259.637 139.409 267.165 146.842 274.683C147.937 275.787 149.05 276.21 150.59 276.21C188.161 276.174 225.731 276.174 263.301 276.188C267.473 276.188 271.027 275.165 272.919 271.012C273.654 269.399 273.631 267.665 273.631 265.939C273.631 210.895 273.631 155.85 273.631 100.81C273.631 77.9387 273.631 55.0631 273.631 32.192C273.631 25.1239 270.586 22.0832 263.5 22.0832C219.555 22.0832 175.61 22.0832 131.665 22.0832C124.584 22.0832 121.552 25.1059 121.543 32.1695C121.534 38.6925 121.489 45.22 121.575 51.743C121.602 53.572 121.12 54.482 119.246 55.1622C113.479 57.257 107.83 59.667 102.123 61.933C99.5459 62.9556 99.5323 62.9286 99.5323 60.2392C99.5323 50.4141 99.5188 40.5935 99.5323 30.7685C99.5639 13.5915 113.047 0.0905202 130.179 0.0860153C174.425 0.0770056 218.672 0.167102 262.914 0.000423332C270.221 -0.0266057 276.928 1.23475 282.861 5.49182C290.889 11.258 295.524 19.1685 295.673 29.0657C295.948 47.5085 295.777 65.9603 295.781 84.4076C295.786 105.932 295.781 127.451 295.781 148.976Z" fill="#578CCF"/>
<path d="M36.6764 191.92C37.4332 174.856 37.9242 157.778 38.4378 140.705C38.7171 131.492 39.1225 122.284 39.2847 113.072C39.4739 102.305 44.5328 94.8274 54.0696 90.1108C61.1962 86.588 68.7598 84.1509 76.0892 81.1281C91.9913 74.5691 107.943 68.1227 123.908 61.7258C131.422 58.7121 139.013 57.9417 146.45 62.0411C152 65.0999 155.235 70.0417 157.145 75.907C161.731 89.9621 154.347 100.035 141.964 105.166C125.449 112.013 108.821 118.59 92.2166 125.231C90.7255 125.825 90.4867 126.767 90.4912 128.181C90.5272 146.998 90.5137 165.819 90.5137 184.636C90.5137 208.178 90.5137 231.72 90.4957 255.263C90.4957 256.047 90.9462 257.209 90.1894 257.556C89.1713 258.024 88.4775 256.921 87.8288 256.245C75.3594 243.271 62.6197 230.572 49.835 217.909C47.3844 215.485 44.9337 213.07 42.5507 210.575C38.6315 206.471 36.7079 201.61 36.6764 195.966C36.6674 194.614 36.6764 193.267 36.6764 191.916V191.92Z" fill="#578CCF"/>
<path d="M139.346 326.957C138.756 337.638 133.179 345.053 124.039 350.09C121.534 351.468 118.827 352.36 115.98 352.757C109.984 353.594 104.943 351.68 100.69 347.45C87.9325 334.769 75.1433 322.124 62.4081 309.42C43.9427 291 25.4999 272.552 7.07963 254.087C4.28212 251.285 1.50714 248.433 0.556621 244.334C-1.00656 237.581 0.849436 231.513 4.5389 226.013C8.2599 220.467 13.3864 216.512 19.8283 214.435C27.419 211.985 33.9105 214.134 39.3568 219.544C57.1104 237.194 74.8865 254.826 92.4284 272.683C105.56 286.049 119.079 299.018 132.292 312.299C134.891 314.911 137.463 317.475 138.626 321.128C139.229 323.034 139.234 324.962 139.346 326.944V326.957Z" fill="#578CCF"/>
<path d="M305.62 90.8901C305.341 92.192 305.998 92.7776 307.17 93.1515C309.372 93.8543 311.643 94.3543 313.756 95.3589C328.815 102.522 333.365 126.145 322.621 138.43C321.342 139.894 319.905 141.227 318.504 142.579C317.558 143.493 317.693 144.083 318.923 144.471C320.207 144.881 321.477 145.336 322.77 145.691C334.072 148.791 339.83 159.85 341.141 170.779C342.546 182.514 336.136 192.222 326.036 197.74C320.008 201.033 313.454 202.849 306.715 204.07C304.732 204.43 304.832 203.34 304.836 202.043C304.85 193.646 304.845 185.253 304.845 176.856C304.845 134.429 304.845 92.0028 304.85 49.5717C304.85 49.2699 304.827 48.9681 304.863 48.6707C304.94 48.0446 304.57 47.1976 305.399 46.8913C306.133 46.621 306.651 47.2247 307.133 47.6932C308.363 48.887 309.656 50.0402 310.192 51.7565C308.255 51.9458 307.985 49.6843 306.327 49.1843C305.714 49.9186 305.967 50.8376 305.967 51.6619C305.949 63.1042 305.949 74.5465 305.962 85.9843C305.962 87.6286 305.953 89.2639 305.62 90.8811V90.8901Z" fill="#578CCF"/>
<path d="M166.637 262.795C165.303 258.943 166.929 256.538 170.939 256.533C188.697 256.52 206.45 256.515 224.208 256.533C228.087 256.538 229.912 259.38 228.335 262.831C227.362 264.962 224.907 264.308 223.1 264.268C219.1 264.173 215.1 264.34 211.099 264.336C206.216 264.327 201.337 264.331 196.454 264.336C191.571 264.34 186.692 264.345 181.809 264.345C178.948 264.345 176.092 264.484 173.232 264.462C171.434 264.448 167.42 265.056 166.637 262.79V262.795Z" fill="#578CCF"/>
<path d="M305.62 90.8901C305.016 90.2639 305.241 89.4756 305.241 88.7503C305.228 75.6502 305.228 62.5502 305.246 49.4501C305.246 48.8149 304.895 47.9004 305.579 47.5941C306.413 47.2247 306.746 48.2788 307.323 48.6753C308.512 49.4906 308.854 51.0853 310.197 51.7611C312.728 54.4324 313.391 57.9237 314.256 61.2933C316.94 71.7581 316.116 82.3715 307.084 89.4981C306.557 89.9126 306.106 90.4216 305.62 90.8901Z" fill="#578CCF"/>
<path d="M141.973 297.108H268.158C268.158 297.162 268.158 297.216 268.158 297.27H141.973C141.973 297.216 141.973 297.162 141.973 297.108Z" fill="#578CCF"/>
<path d="M120.615 124.316V248.789C120.539 248.789 120.467 248.789 120.39 248.789V124.257C120.467 124.275 120.539 124.293 120.615 124.316Z" fill="#578CCF"/>
<path d="M100.668 132.019V255.439C100.564 255.439 100.46 255.439 100.361 255.439V131.956C100.465 131.979 100.569 132.001 100.668 132.019Z" fill="#578CCF"/>
<path d="M266.816 277.075H148.703V276.85H266.883C266.861 276.927 266.838 277.003 266.816 277.075Z" fill="#578CCF"/>
<path d="M120.358 53.4053V29.4396C120.43 29.4396 120.503 29.4396 120.575 29.4396V53.4864C120.503 53.4594 120.43 53.4324 120.358 53.4053Z" fill="#578CCF"/>
<path d="M253.638 121.586C244.8 106.662 231.934 97.1023 215.221 92.7191C209.428 91.2009 209.392 91.3496 209.365 85.2005C209.365 83.6283 209.423 82.0516 209.356 80.4794C209.167 76.1863 205.162 72.2266 200.905 72.0644C196.022 71.8752 191.958 75.0961 191.287 79.637C190.8 82.921 191.075 86.2231 191.057 89.5161C191.048 90.9802 190.625 91.8136 189.044 91.8046C188.525 91.8046 187.998 91.9082 187.489 92.0253C169.893 95.9851 156.077 105.414 146.779 120.924C136.886 137.421 134.801 155.183 141.378 173.176C149.982 196.709 167.123 210.611 192.098 214.314C207.027 216.526 220.861 213.161 233.466 205.074C248.913 195.164 258.314 180.919 261.333 162.9C263.77 148.358 261.252 134.438 253.643 121.595L253.638 121.586ZM249.728 163.562C246.444 178.266 238.043 189.465 225.01 197.042C214.942 202.894 203.937 204.894 192.53 203.2C177.912 201.029 166.254 193.664 157.838 181.41C149.996 169.986 147.153 157.346 149.874 143.808C154.262 121.965 167.862 108.689 189.197 102.999C190.832 102.562 190.994 103.341 191.026 104.571C191.116 108.09 190.841 111.608 191.201 115.131C191.386 116.942 192.008 118.545 193.256 119.748C194.702 121.14 194.981 122.699 194.954 124.591C194.864 130.848 194.922 130.853 188.724 130.853C186.926 130.853 185.124 130.853 183.327 130.853V130.866C180.255 130.866 177.178 130.902 174.105 130.857C168.082 130.771 165.695 136.808 167.866 140.88C174.407 153.147 180.773 165.504 187.21 177.825C189.494 182.194 191.8 186.55 194.066 190.925C195.391 193.479 197.427 194.88 200.328 194.889C203.157 194.898 205.225 193.488 206.5 191.078C211.694 181.23 216.811 171.342 221.96 161.472C225.416 154.85 228.686 148.124 232.398 141.651C235.624 136.02 231.425 130.465 225.713 130.785C219.956 131.105 214.172 130.785 208.401 130.893C206.41 130.929 205.423 130.452 205.698 128.271C205.847 127.091 205.811 125.87 205.707 124.676C205.531 122.636 205.932 120.955 207.536 119.451C208.919 118.153 209.432 116.27 209.432 114.32C209.432 111.171 209.468 108.022 209.441 104.873C209.428 103.414 209.892 102.814 211.473 103.197C226.006 106.725 237.02 115.032 244.399 127.951C250.742 139.065 252.508 151.111 249.728 163.567V163.562Z" fill="#578CCF"/>
<path d="M191.945 115.982V103.567C192.021 103.567 192.093 103.567 192.17 103.567V115.915C192.093 115.937 192.021 115.96 191.945 115.987V115.982Z" fill="#578CCF"/>
</svg>
