 <svg width="132" height="28" viewBox="0 0 132 28" fill="none" xmlns="http://www.w3.org/2000/svg">
                            <g clip-path="url(#clip0_1639_7890)">
                            <path d="M14.7268 3.76809V1.78221C14.7268 0.789263 13.9121 0 12.9192 0C11.9262 0 11.1369 0.814723 11.1369 1.78221V3.74263C5.33205 4.60828 0.851074 9.59845 0.851074 15.6325C0.851074 22.2521 6.24861 27.6497 12.8682 27.6497C19.4879 27.6497 24.8854 22.2521 24.8854 15.6325C24.8599 9.64937 20.4553 4.68466 14.7268 3.76809ZM12.8682 25.4601C7.44524 25.4601 3.04064 21.0555 3.04064 15.6325C3.04064 10.8205 6.52867 6.79784 11.1369 5.98312V8.12177C11.1369 8.70735 11.417 9.24201 11.8498 9.57299V11.3807H7.80168C7.3434 11.3807 6.91057 11.6098 6.65597 12.0172C6.42683 12.4245 6.40137 12.9083 6.63051 13.3156L11.748 23.0668C11.9771 23.4997 12.4354 23.7797 12.9192 23.7797C13.4284 23.7797 13.8612 23.4997 14.0903 23.0668L19.2078 13.3156C19.4115 12.9083 19.4115 12.3991 19.1569 12.0172C18.9277 11.6353 18.4949 11.3807 18.0366 11.3807H13.9885V9.57299C14.4468 9.24201 14.7268 8.70735 14.7268 8.12177V5.98312C19.2587 6.87422 22.6704 10.8715 22.6704 15.6325C22.6704 21.0555 18.2658 25.4601 12.8682 25.4601ZM85.8368 21.2592H81.8905V16.4981H85.2513V12.3227H81.8905V8.22361H85.4549V3.84447H76.5184V25.6383H85.8368V21.2592ZM45.2025 8.19815H46.8829V25.6128H52.2295V3.84447H39.8559V25.6128H45.2025V8.19815ZM38.0737 21.2846H34.1019V16.4981H37.4881V12.3227H34.1019V8.17269H37.7427V3.84447H28.6789V25.6128H38.0737V21.2846ZM92.9657 16.5236H94.6206V25.6383H99.9926V3.86993H94.6206V11.6862H92.9657V3.86993H87.619V25.6383H92.9657V16.5236ZM104.932 25.6383H110.279V8.22361H113.486V3.86993H101.749V8.22361H104.932V25.6383ZM59.3584 3.84447H54.0117V25.6128H59.3584V3.84447ZM74.7617 21.2592H73.616V3.84447H68.2185V21.2592H66.5381V3.84447H61.1406V25.5874H71.0191V27.726H74.7617V21.2592ZM126.624 6.92514C126.497 6.26318 126.217 5.72852 125.835 5.27024C125.427 4.81196 124.842 4.45552 124.052 4.22637C123.263 3.97177 122.143 3.86993 120.692 3.86993H115.269V25.6383H120.615V16.8546H122.067C123.238 16.8546 124.205 16.6764 124.918 16.3454C125.656 16.0144 126.14 15.5052 126.42 14.8687C126.7 14.2322 126.828 13.2138 126.828 11.8389V9.92943C126.828 8.58005 126.751 7.56165 126.624 6.92514ZM121.15 12.7046C119.597 12.7046 118.324 11.4316 118.324 9.87851C118.324 8.32545 119.597 7.05244 121.15 7.05244C122.703 7.05244 123.976 8.32545 123.976 9.87851C123.976 11.457 122.703 12.7046 121.15 12.7046Z" fill="white"/>
                            <path d="M121.15 7.73999C119.954 7.73999 118.986 8.70747 118.986 9.87864C118.986 11.0753 119.954 12.0173 121.15 12.0173C122.347 12.0173 123.315 11.0498 123.315 9.87864C123.289 8.70747 122.322 7.73999 121.15 7.73999ZM121.532 11.3044L120.921 10.1332V11.3044H120.03V8.50379H120.921V9.70042L121.507 8.50379H122.551L121.787 9.9041L122.653 11.3299L121.532 11.3044Z" fill="white"/>
                            <path d="M130.239 6.23781L129.959 5.77953C129.908 5.70315 129.857 5.62677 129.781 5.57585C129.857 5.55039 129.934 5.49947 129.985 5.44855C130.087 5.34671 130.112 5.21941 130.112 5.0921C130.112 4.99026 130.087 4.88842 130.036 4.78658C129.985 4.68474 129.908 4.63382 129.807 4.5829C129.705 4.55744 129.603 4.53198 129.425 4.53198H128.584V6.39057H129.017V5.65223H129.272C129.297 5.65223 129.323 5.67769 129.348 5.67769C129.374 5.67769 129.399 5.70315 129.425 5.75407C129.476 5.80499 129.527 5.88137 129.577 5.98321L129.807 6.31419L129.832 6.36511H130.341L130.239 6.23781ZM129.679 5.19394C129.654 5.2194 129.628 5.24487 129.603 5.24487C129.552 5.27033 129.501 5.27033 129.399 5.27033H129.017V4.91388H129.45C129.552 4.91388 129.628 4.93934 129.654 4.9648C129.679 4.99026 129.705 5.04118 129.705 5.0921C129.705 5.11756 129.679 5.14302 129.679 5.19394Z" fill="white"/>
                            <path d="M130.723 5.47389C130.723 6.21223 130.112 6.82328 129.374 6.82328C128.635 6.82328 128.024 6.21223 128.024 5.47389C128.024 4.73555 128.635 4.12451 129.374 4.12451C130.112 4.09905 130.723 4.71009 130.723 5.47389ZM129.374 3.76807C128.432 3.76807 127.668 4.53187 127.668 5.47389C127.668 6.41591 128.432 7.17972 129.374 7.17972C130.316 7.17972 131.08 6.41591 131.08 5.47389C131.08 4.53187 130.29 3.76807 129.374 3.76807Z" fill="white"/>
                            </g>
                            <defs>
                            <clipPath id="clip0_1639_7890">
                            <rect width="130.839" height="27.726" fill="white" transform="translate(0.240234)"/>
                            </clipPath>
                            </defs>
 </svg>